<svg width="199" height="86" viewBox="0 0 199 86" fill="none" xmlns="http://www.w3.org/2000/svg">
<path d="M39.5401 30.6052C22.1925 30.6052 12.5557 26.6474 12.5557 20.6576C12.5557 14.6677 22.1925 10.6833 39.5401 10.6833C63.1515 10.6833 66.5245 20.6576 66.5245 20.6576C66.5245 20.6576 63.1515 30.6052 39.5401 30.6052ZM39.5401 30.6052C63.1515 30.6052 66.5245 40.5794 66.5245 40.5794C66.5245 40.5794 63.1515 50.5271 39.5401 50.5271M39.5401 30.6052C22.1925 30.6052 12.5557 34.5896 12.5557 40.5794C12.5557 46.5693 22.1925 50.5271 39.5401 50.5271M39.5401 50.5271C63.1515 50.5271 66.5245 60.5013 66.5245 60.5013C66.5245 60.5013 63.1515 70.449 39.5401 70.449C22.1925 70.449 12.5557 66.4912 12.5557 60.5013C12.5557 54.5115 22.1925 50.5271 39.5401 50.5271ZM69.8976 14.0037C69.8976 18.4861 66.5245 20.6443 66.5245 20.6443C66.5245 20.6443 69.8976 23.8816 69.8976 30.6052C69.8976 37.3289 66.5245 40.5662 66.5245 40.5662C66.5245 40.5662 69.8976 43.8035 69.8976 50.5271C69.8976 57.2507 66.5245 60.488 66.5245 60.488C66.5245 60.488 69.8976 62.6462 69.8976 67.1287" stroke="#8697F7" stroke-width="10" stroke-linecap="round" stroke-linejoin="round"/>
<path d="M43.6004 35.9443C26.2528 35.9443 16.616 31.9865 16.616 25.9967C16.616 20.0068 26.2528 16.0225 43.6004 16.0225C67.2118 16.0225 70.5848 25.9967 70.5848 25.9967C70.5848 25.9967 67.2118 35.9443 43.6004 35.9443ZM43.6004 35.9443C67.2118 35.9443 70.5848 45.9186 70.5848 45.9186C70.5848 45.9186 67.2118 55.8662 43.6004 55.8662M43.6004 35.9443C26.2528 35.9443 16.616 39.9287 16.616 45.9186C16.616 51.9084 26.2528 55.8662 43.6004 55.8662M43.6004 55.8662C67.2118 55.8662 70.5848 65.8404 70.5848 65.8404C70.5848 65.8404 67.2118 75.7881 43.6004 75.7881C26.2528 75.7881 16.616 71.8303 16.616 65.8404C16.616 59.8506 26.2528 55.8662 43.6004 55.8662ZM73.9579 19.3428C73.9579 23.8252 70.5848 25.9834 70.5848 25.9834C70.5848 25.9834 73.9579 29.2207 73.9579 35.9443C73.9579 42.668 70.5848 45.9053 70.5848 45.9053C70.5848 45.9053 73.9579 49.1426 73.9579 55.8662C73.9579 62.5898 70.5848 65.8271 70.5848 65.8271C70.5848 65.8271 73.9579 67.9854 73.9579 72.4678" stroke="#475B76" stroke-width="6" stroke-linecap="round" stroke-linejoin="round"/>
<path d="M108.925 25.7974C108.925 26.8474 108.642 27.7974 108.075 28.6474C107.508 29.4974 106.683 30.1224 105.6 30.5224L109.425 37.7224H103.225L100.175 31.4474H98.125V37.7224H92.6V20.5224H103.125C104.358 20.5224 105.408 20.7641 106.275 21.2474C107.158 21.7141 107.817 22.3557 108.25 23.1724C108.7 23.9724 108.925 24.8474 108.925 25.7974ZM103.3 26.0224C103.3 25.5724 103.15 25.1974 102.85 24.8974C102.55 24.5974 102.183 24.4474 101.75 24.4474H98.125V27.6224H101.75C102.183 27.6224 102.55 27.4724 102.85 27.1724C103.15 26.8557 103.3 26.4724 103.3 26.0224ZM117.898 24.2224C120.315 24.2224 122.157 24.7891 123.423 25.9224C124.707 27.0557 125.348 28.7891 125.348 31.1224V31.9724H115.448C115.448 32.9224 115.657 33.6391 116.073 34.1224C116.507 34.6057 117.182 34.8474 118.098 34.8474C118.932 34.8474 119.54 34.6724 119.923 34.3224C120.323 33.9724 120.523 33.5057 120.523 32.9224H125.348C125.348 34.5224 124.74 35.7724 123.523 36.6724C122.307 37.5724 120.532 38.0224 118.198 38.0224C115.748 38.0224 113.848 37.4557 112.498 36.3224C111.148 35.1724 110.473 33.4391 110.473 31.1224C110.473 28.8557 111.132 27.1391 112.448 25.9724C113.765 24.8057 115.582 24.2224 117.898 24.2224ZM118.098 27.3974C116.532 27.3974 115.657 28.1391 115.473 29.6224H120.323C120.323 28.9391 120.123 28.3974 119.723 27.9974C119.34 27.5974 118.798 27.3974 118.098 27.3974ZM136.848 24.2224C138.381 24.2224 139.531 24.6474 140.298 25.4974C141.065 26.3474 141.448 27.5724 141.448 29.1724V37.7224H136.473V29.7724C136.473 29.2057 136.323 28.7557 136.023 28.4224C135.74 28.0724 135.331 27.8974 134.798 27.8974C134.181 27.8974 133.681 28.0974 133.298 28.4974C132.915 28.8974 132.723 29.3891 132.723 29.9724V37.7224H127.748V24.5224H131.823L132.148 26.5224C132.665 25.8224 133.34 25.2641 134.173 24.8474C135.023 24.4307 135.915 24.2224 136.848 24.2224ZM153.223 24.5224V27.8974H150.423V32.9224C150.423 33.5224 150.523 33.9641 150.723 34.2474C150.923 34.5141 151.29 34.6474 151.823 34.6474H153.223V37.5724C152.823 37.7057 152.306 37.8141 151.673 37.8974C151.04 37.9807 150.49 38.0224 150.023 38.0224C148.556 38.0224 147.423 37.7557 146.623 37.2224C145.84 36.6891 145.448 35.7807 145.448 34.4974V27.8974H143.598V24.5224H145.648L146.723 20.5224H150.423V24.5224H153.223ZM162.056 24.2224C164.073 24.2224 165.715 24.5641 166.981 25.2474C168.248 25.9141 168.881 27.0057 168.881 28.5224V33.6724C168.881 33.9557 168.948 34.1891 169.081 34.3724C169.215 34.5557 169.415 34.6474 169.681 34.6474H170.581V37.5224C170.531 37.5557 170.398 37.6141 170.181 37.6974C169.981 37.7641 169.69 37.8307 169.306 37.8974C168.923 37.9807 168.481 38.0224 167.981 38.0224C167.015 38.0224 166.215 37.8807 165.581 37.5974C164.965 37.2974 164.54 36.8891 164.306 36.3724C163.673 36.8724 162.965 37.2724 162.181 37.5724C161.398 37.8724 160.481 38.0224 159.431 38.0224C156.331 38.0224 154.781 36.7891 154.781 34.3224C154.781 33.0391 155.123 32.0641 155.806 31.3974C156.506 30.7141 157.506 30.2474 158.806 29.9974C160.106 29.7474 161.806 29.6224 163.906 29.6224V28.9724C163.906 28.4557 163.723 28.0641 163.356 27.7974C163.006 27.5307 162.548 27.3974 161.981 27.3974C161.465 27.3974 161.015 27.4891 160.631 27.6724C160.265 27.8557 160.081 28.1474 160.081 28.5474V28.6474H155.181C155.165 28.5641 155.156 28.4474 155.156 28.2974C155.156 27.0474 155.748 26.0557 156.931 25.3224C158.131 24.5891 159.84 24.2224 162.056 24.2224ZM163.906 31.9724C162.49 31.9724 161.44 32.1307 160.756 32.4474C160.09 32.7474 159.756 33.1557 159.756 33.6724C159.756 34.5057 160.323 34.9224 161.456 34.9224C162.106 34.9224 162.673 34.7474 163.156 34.3974C163.656 34.0474 163.906 33.6141 163.906 33.0974V31.9724ZM172.381 37.7224V19.5974H177.356V37.7224H172.381ZM100.8 47.2224C103.35 47.2224 105.367 47.8641 106.85 49.1474C108.333 50.4141 109.075 52.2307 109.075 54.5974H103.8C103.8 53.5974 103.533 52.8057 103 52.2224C102.483 51.6391 101.742 51.3474 100.775 51.3474C99.6583 51.3474 98.8333 51.6974 98.3 52.3974C97.7833 53.0974 97.525 54.0724 97.525 55.3224V56.9224C97.525 58.1557 97.7833 59.1307 98.3 59.8474C98.8333 60.5474 99.6417 60.8974 100.725 60.8974C101.792 60.8974 102.6 60.6224 103.15 60.0724C103.7 59.5224 103.975 58.7474 103.975 57.7474H109.075C109.075 60.0974 108.35 61.8974 106.9 63.1474C105.467 64.3974 103.433 65.0224 100.8 65.0224C97.8667 65.0224 95.6417 64.2724 94.125 62.7724C92.625 61.2724 91.875 59.0557 91.875 56.1224C91.875 53.1891 92.625 50.9724 94.125 49.4724C95.6417 47.9724 97.8667 47.2224 100.8 47.2224ZM116.683 52.8974C117.216 52.3641 117.841 51.9557 118.558 51.6724C119.275 51.3724 120.025 51.2224 120.808 51.2224C122.341 51.2224 123.491 51.6474 124.258 52.4974C125.025 53.3474 125.408 54.5724 125.408 56.1724V64.7224H120.433V56.7724C120.433 56.2057 120.283 55.7557 119.983 55.4224C119.7 55.0724 119.291 54.8974 118.758 54.8974C118.141 54.8974 117.641 55.0974 117.258 55.4974C116.875 55.8974 116.683 56.3891 116.683 56.9724V64.7224H111.708V46.5974H116.683V52.8974ZM134.908 51.2224C136.924 51.2224 138.566 51.5641 139.833 52.2474C141.099 52.9141 141.733 54.0057 141.733 55.5224V60.6724C141.733 60.9557 141.799 61.1891 141.933 61.3724C142.066 61.5557 142.266 61.6474 142.533 61.6474H143.433V64.5224C143.383 64.5557 143.249 64.6141 143.033 64.6974C142.833 64.7641 142.541 64.8307 142.158 64.8974C141.774 64.9807 141.333 65.0224 140.833 65.0224C139.866 65.0224 139.066 64.8807 138.433 64.5974C137.816 64.2974 137.391 63.8891 137.158 63.3724C136.524 63.8724 135.816 64.2724 135.033 64.5724C134.249 64.8724 133.333 65.0224 132.283 65.0224C129.183 65.0224 127.633 63.7891 127.633 61.3224C127.633 60.0391 127.974 59.0641 128.658 58.3974C129.358 57.7141 130.358 57.2474 131.658 56.9974C132.958 56.7474 134.658 56.6224 136.758 56.6224V55.9724C136.758 55.4557 136.574 55.0641 136.208 54.7974C135.858 54.5307 135.399 54.3974 134.833 54.3974C134.316 54.3974 133.866 54.4891 133.483 54.6724C133.116 54.8557 132.933 55.1474 132.933 55.5474V55.6474H128.033C128.016 55.5641 128.008 55.4474 128.008 55.2974C128.008 54.0474 128.599 53.0557 129.783 52.3224C130.983 51.5891 132.691 51.2224 134.908 51.2224ZM136.758 58.9724C135.341 58.9724 134.291 59.1307 133.608 59.4474C132.941 59.7474 132.608 60.1557 132.608 60.6724C132.608 61.5057 133.174 61.9224 134.308 61.9224C134.958 61.9224 135.524 61.7474 136.008 61.3974C136.508 61.0474 136.758 60.6141 136.758 60.0974V58.9724ZM154.158 51.2224C155.691 51.2224 156.841 51.6474 157.608 52.4974C158.374 53.3474 158.758 54.5724 158.758 56.1724V64.7224H153.783V56.7724C153.783 56.2057 153.633 55.7557 153.333 55.4224C153.049 55.0724 152.641 54.8974 152.108 54.8974C151.491 54.8974 150.991 55.0974 150.608 55.4974C150.224 55.8974 150.033 56.3891 150.033 56.9724V64.7224H145.058V51.5224H149.133L149.458 53.5224C149.974 52.8224 150.649 52.2641 151.483 51.8474C152.333 51.4307 153.224 51.2224 154.158 51.2224ZM176.582 49.0474C176.582 50.0641 176.324 50.8474 175.807 51.3974C175.307 51.9474 174.549 52.3557 173.532 52.6224C174.016 52.9891 174.391 53.4224 174.657 53.9224C174.941 54.4057 175.082 54.9224 175.082 55.4724C175.082 56.8724 174.549 57.9307 173.482 58.6474C172.432 59.3641 171.116 59.7224 169.532 59.7224H167.632C166.582 59.7224 166.057 59.9641 166.057 60.4474C166.057 60.6807 166.174 60.8724 166.407 61.0224C166.641 61.1557 167.049 61.2224 167.632 61.2224H172.132C173.599 61.2224 174.707 61.6057 175.457 62.3724C176.207 63.1391 176.582 64.1641 176.582 65.4474C176.582 66.3974 176.332 67.2141 175.832 67.8974C175.332 68.5807 174.657 69.0974 173.807 69.4474C172.957 69.7974 172.032 69.9724 171.032 69.9724H163.682C163.082 69.9724 162.524 69.8307 162.007 69.5474C161.507 69.2641 161.107 68.8724 160.807 68.3724C160.507 67.8891 160.357 67.3474 160.357 66.7474C160.357 66.0974 160.557 65.5057 160.957 64.9724C161.357 64.4557 161.857 64.0641 162.457 63.7974C162.057 63.5141 161.741 63.1724 161.507 62.7724C161.274 62.3724 161.157 61.9391 161.157 61.4724C161.157 60.8224 161.399 60.2391 161.882 59.7224C162.366 59.1891 162.966 58.8307 163.682 58.6474C163.032 58.2307 162.516 57.7557 162.132 57.2224C161.749 56.6724 161.557 56.0974 161.557 55.4974C161.557 53.9641 162.174 52.8724 163.407 52.2224C164.657 51.5557 166.307 51.2224 168.357 51.2224C169.257 51.2224 169.982 51.2724 170.532 51.3724C171.349 50.8557 171.874 50.3891 172.107 49.9724C172.357 49.5391 172.482 49.2307 172.482 49.0474H176.582ZM168.307 53.8224C167.757 53.8224 167.307 53.9641 166.957 54.2474C166.607 54.5307 166.432 54.9391 166.432 55.4724C166.432 56.0224 166.591 56.4391 166.907 56.7224C167.241 56.9891 167.707 57.1224 168.307 57.1224C168.907 57.1224 169.374 56.9891 169.707 56.7224C170.057 56.4391 170.232 56.0224 170.232 55.4724C170.232 54.9224 170.057 54.5141 169.707 54.2474C169.374 53.9641 168.907 53.8224 168.307 53.8224ZM166.382 64.7224C165.999 64.7224 165.682 64.8224 165.432 65.0224C165.199 65.2391 165.082 65.5391 165.082 65.9224C165.082 66.3057 165.207 66.6141 165.457 66.8474C165.707 67.0807 166.016 67.1974 166.382 67.1974H170.282C170.649 67.1974 170.957 67.0807 171.207 66.8474C171.474 66.6307 171.607 66.3307 171.607 65.9474C171.607 65.5641 171.482 65.2641 171.232 65.0474C170.982 64.8307 170.666 64.7224 170.282 64.7224H166.382ZM185.232 51.2224C187.649 51.2224 189.491 51.7891 190.757 52.9224C192.041 54.0557 192.682 55.7891 192.682 58.1224V58.9724H182.782C182.782 59.9224 182.991 60.6391 183.407 61.1224C183.841 61.6057 184.516 61.8474 185.432 61.8474C186.266 61.8474 186.874 61.6724 187.257 61.3224C187.657 60.9724 187.857 60.5057 187.857 59.9224H192.682C192.682 61.5224 192.074 62.7724 190.857 63.6724C189.641 64.5724 187.866 65.0224 185.532 65.0224C183.082 65.0224 181.182 64.4557 179.832 63.3224C178.482 62.1724 177.807 60.4391 177.807 58.1224C177.807 55.8557 178.466 54.1391 179.782 52.9724C181.099 51.8057 182.916 51.2224 185.232 51.2224ZM185.432 54.3974C183.866 54.3974 182.991 55.1391 182.807 56.6224H187.657C187.657 55.9391 187.457 55.3974 187.057 54.9974C186.674 54.5974 186.132 54.3974 185.432 54.3974Z" fill="#475B76"/>
</svg>
