<svg width="26" height="26" viewBox="0 0 26 26" fill="none" xmlns="http://www.w3.org/2000/svg">
<g clip-path="url(#clip0_66_802)">
<path d="M17.2823 18.9312C15.2392 20.5191 12.6681 21.2682 10.0924 21.026C7.51664 20.7838 5.13004 19.5684 3.4185 17.6275C1.70696 15.6865 0.799164 13.1659 0.879966 10.5788C0.960768 7.99164 2.02409 5.5326 3.85342 3.70234C5.68274 1.87208 8.14053 0.808223 10.7263 0.727381C13.3121 0.646538 15.8315 1.55479 17.7715 3.26721C19.7115 4.97962 20.9262 7.36744 21.1682 9.94446C21.4103 12.5215 20.6616 15.0939 19.0745 17.138L25.875 23.9165L24.07 25.7224L17.295 18.9312H17.2823ZM11.0538 18.5242C12.0553 18.5242 13.0471 18.3269 13.9724 17.9434C14.8977 17.5599 15.7385 16.9979 16.4467 16.2893C17.1549 15.5807 17.7167 14.7395 18.0999 13.8138C18.4832 12.888 18.6805 11.8957 18.6805 10.8937C18.6805 9.8916 18.4832 8.89935 18.0999 7.97356C17.7167 7.04778 17.1549 6.20659 16.4467 5.49803C15.7385 4.78946 14.8977 4.2274 13.9724 3.84393C13.0471 3.46045 12.0553 3.26308 11.0538 3.26308C9.03106 3.26308 7.09118 4.06702 5.6609 5.49803C4.23061 6.92904 3.42709 8.8699 3.42709 10.8937C3.42709 12.9174 4.23061 14.8583 5.6609 16.2893C7.09118 17.7203 9.03106 18.5242 11.0538 18.5242Z" fill="#475B76"/>
</g>
<defs>
<clipPath id="clip0_66_802">
<rect width="25" height="25" fill="white" transform="translate(0.875 0.722412)"/>
</clipPath>
</defs>
</svg>
